<svg xmlns="http://www.w3.org/2000/svg" width="36" height="37" viewBox="0 0 36 37"><g><g opacity=".1"><g opacity=".1"><path fill="#033fff" d="M22.403 11.637c-3.71-.797-8.904-1.45-10.379-5.592-1.087-3.055-1.717-7.417-5.998-4.643C3.372 3.122 1.69 6.697.798 9.625c-2.469 8.119 1 17.078 7.497 22.266 6.335 5.06 16.354 7.58 23.128 1.907 2.443-2.046 4.302-5.104 4.618-8.308.739-7.471-7.262-12.483-13.638-13.853z"/></g></g><g><g><path fill="#5f52fa" d="M23.152 26.945v-7.95h8.077v7.753a.196.196 0 0 1-.195.197zm-9.919-.196v-7.754h7.914v7.95h-7.719a.195.195 0 0 1-.195-.196zm3.844-19.746c.441.088 1.489 1.253 2.504 2.718h-2.476c-.967 0-1.785-.622-1.785-1.358 0-.736.818-1.358 1.757-1.36zm10.116.002c.968 0 1.785.622 1.785 1.357 0 .736-.817 1.358-1.785 1.358h-2.476c1.015-1.464 2.056-2.628 2.476-2.715zm-4.041 6.107h8.947c.108 0 .196.087.196.195v3.488a.196.196 0 0 1-.196.195h-8.947zM12.201 16.99a.196.196 0 0 1-.196-.196v-3.488c0-.108.088-.195.196-.195h8.946v3.878H12.2zm17.175-5.884c.97-.61 1.607-1.611 1.607-2.745 0-1.854-1.7-3.362-3.79-3.362-1.772 0-3.872 3.038-5.043 5.002C20.978 8.04 18.878 5 17.105 5c-2.09 0-3.79 1.509-3.79 3.362 0 1.134.638 2.136 1.608 2.745h-2.722c-1.214 0-2.201.987-2.201 2.2v3.488a2.2 2.2 0 0 0 1.228 1.97v7.983c0 1.214.987 2.2 2.2 2.2h17.605c1.214 0 2.201-.986 2.201-2.2v-8.071a2.198 2.198 0 0 0 1.065-1.881v-3.489c0-1.213-.987-2.2-2.2-2.2z"/></g></g></g></svg>