<svg xmlns="http://www.w3.org/2000/svg" width="40" height="41" viewBox="0 0 40 41"><g><g opacity=".1"><path fill="#033fff" d="M4.096 34.223c4.193 3.716 9.755 5.832 15.383 6.078 18.874.824 25.29-22.65 14.505-35.57C32.12 2.497 29.515.495 26.611.697c-3.26.227-5.671 3.106-7.25 5.967-1.58 2.861-2.853 6.075-5.473 8.028C9.5 17.959 3.352 16.857.715 22.6c-2.088 4.55-.077 8.558 3.38 11.622z"/></g><g><g><path fill="#5f52fa" d="M31.943 23.902c.555 0 1.006-.45 1.006-1.005V12.235a4.028 4.028 0 0 0-4.023-4.023h-1.308V7.206a1.006 1.006 0 1 0-2.012 0v1.006H21.03V7.206a1.006 1.006 0 1 0-2.011 0v1.006h-4.527V7.206a1.006 1.006 0 1 0-2.011 0v1.006h-1.257A4.028 4.028 0 0 0 7.2 12.235v15.69a4.028 4.028 0 0 0 4.024 4.024h17.702a4.028 4.028 0 0 0 4.023-4.023 1.006 1.006 0 1 0-2.012 0c0 1.109-.902 2.011-2.011 2.011H11.224a2.014 2.014 0 0 1-2.012-2.011v-15.69c0-1.11.902-2.012 2.012-2.012h1.257v1.005a1.006 1.006 0 1 0 2.011 0v-1.005h4.527v1.005a1.006 1.006 0 1 0 2.011 0v-1.005h4.576v1.005a1.006 1.006 0 1 0 2.012 0v-1.005h1.308c1.109 0 2.011.902 2.011 2.011v10.662c0 .555.45 1.005 1.006 1.005z"/></g><g><path fill="#5f52fa" d="M22.145 21.106a1.67 1.67 0 0 0-.612 1.877l.288.884-.76-.55a1.672 1.672 0 0 0-.986-.32c-.357 0-.697.11-.986.32l-.76.55.287-.884a1.67 1.67 0 0 0-.611-1.877l-.793-.573h.974c.747 0 1.374-.442 1.598-1.128l.29-.896.292.898c.223.684.85 1.126 1.597 1.126h.974zm3.377-1.414a1.678 1.678 0 0 0-1.597-1.17h-1.732l-.521-1.61a1.676 1.676 0 0 0-1.597-1.157c-.73 0-1.372.466-1.598 1.16l-.521 1.606h-1.732c-.728 0-1.37.47-1.597 1.171a1.688 1.688 0 0 0 .611 1.896l1.39 1.005-.53 1.625a1.671 1.671 0 0 0 .606 1.873c.59.43 1.384.432 1.976.004l1.395-1.009 1.394 1.009a1.68 1.68 0 0 0 2.583-1.877l-.53-1.625 1.39-1.005c.592-.43.838-1.191.61-1.896z"/></g></g></g></svg>