<svg xmlns="http://www.w3.org/2000/svg" width="42" height="37" viewBox="0 0 42 37"><g><g opacity=".1"><path fill="#033fff" d="M34.057 34.4c1.251-1.315 2.238-2.995 2.886-4.745.913-2.465 1.3-5.139 1.565-7.798.858-8.595-1.48-18.507-9.586-21.15-5.437-1.774-11.333.042-16.308 2.67-7.31 3.86-17.612 15.88-9.001 24.814 4.629 4.804 12.106 2.991 17.579 5.607 2.563 1.226 4.977 3.483 7.901 3.215 1.907-.176 3.594-1.176 4.964-2.614z"/></g><g><g><path fill="#5f52fa" d="M22.96 10.878a2.646 2.646 0 1 1-2.646-2.646 2.658 2.658 0 0 1 2.646 2.646zm2.243.011a4.89 4.89 0 1 0-4.89 4.89 4.9 4.9 0 0 0 4.89-4.89z"/></g><g><path fill="#5f52fa" d="M33.4 10.878a2.646 2.646 0 1 1-2.613-2.646 2.658 2.658 0 0 1 2.613 2.646zm-2.613 4.9a4.9 4.9 0 0 0 4.856-4.9 4.89 4.89 0 1 0-4.856 4.9z"/></g><g><path fill="#5f52fa" d="M41.25 26.05a1.121 1.121 0 0 1-1.335-.707 9.554 9.554 0 0 0-2.332-3.756 7.48 7.48 0 0 0-.998-.852 9.576 9.576 0 0 0-5.787-1.93c-.658.002-1.315.065-1.962.192-.202-.157-.392-.314-.594-.449a10.328 10.328 0 0 0-1.862-1.121 11.875 11.875 0 0 1 11.505 1.48c.455.336.879.711 1.268 1.121a11.662 11.662 0 0 1 2.87 4.62 1.121 1.121 0 0 1-.773 1.402z"/></g><g><path fill="#5f52fa" d="M10.86 23.381a1.121 1.121 0 0 0-1.536.538c-.09.225-.179.449-.258.673a1.121 1.121 0 0 0 .785 1.47 1.121 1.121 0 0 0 1.335-.719c0-.168.112-.336.18-.493a1.121 1.121 0 0 0-.517-1.446z"/></g><g><path fill="#5f52fa" d="M31.606 24.951a1.121 1.121 0 0 1-.886 1.121 1.121 1.121 0 0 1-1.29-.729 9.42 9.42 0 0 0-2.332-3.756 7.614 7.614 0 0 0-.998-.852 9.655 9.655 0 0 0-11.214-.247 7.345 7.345 0 0 0-.594.437.796.796 0 0 1-.157.112H13.9c-.62 0-1.122-.502-1.122-1.12a1.121 1.121 0 0 1 .46-.92l-.022-.101a11.853 11.853 0 0 1 14.185 0c.455.314.88.67 1.267 1.065a11.662 11.662 0 0 1 2.87 4.62c.048.118.07.243.068.37z"/></g></g></g></svg>