<svg xmlns="http://www.w3.org/2000/svg" xmlns:xlink="http://www.w3.org/1999/xlink" width="226.47" height="226.47" viewBox="0 0 226.47 226.47"><defs><style>.cls-1{fill:url(#radial-gradient)}.cls-2{fill:none}.cls-3{isolation:isolate}.cls-4{clip-path:url(#clip-path)}.cls-5{opacity:.5}.cls-11,.cls-5{mix-blend-mode:screen}.cls-6{clip-path:url(#clip-path-4)}.cls-7{mask:url(#mask)}.cls-8{fill:url(#radial-gradient-2)}.cls-9{clip-path:url(#clip-path-5)}.cls-10{fill:url(#radial-gradient-3)}.cls-12{clip-path:url(#clip-path-7)}.cls-13{clip-path:url(#clip-path-8)}.cls-14{fill:url(#radial-gradient-4)}.cls-15{clip-path:url(#clip-path-9)}.cls-16{clip-path:url(#clip-path-10)}.cls-17{fill:url(#radial-gradient-5)}.cls-18{opacity:.4}.cls-18,.cls-25{mix-blend-mode:multiply}.cls-19{clip-path:url(#clip-path-11)}.cls-20{clip-path:url(#clip-path-12)}.cls-21{fill:url(#radial-gradient-6)}.cls-22{clip-path:url(#clip-path-13)}.cls-23{clip-path:url(#clip-path-14)}.cls-24{fill:url(#radial-gradient-7)}.cls-25{opacity:.2}.cls-26{clip-path:url(#clip-path-15)}.cls-27{clip-path:url(#clip-path-16)}.cls-28{fill:url(#radial-gradient-8)}.cls-29{clip-path:url(#clip-path-17)}.cls-30{fill:url(#radial-gradient-9)}.cls-31{clip-path:url(#clip-path-18)}.cls-32{fill:url(#radial-gradient-10)}.cls-33{clip-path:url(#clip-path-19)}.cls-34{fill:url(#radial-gradient-11)}.cls-35{clip-path:url(#clip-path-20)}.cls-36{fill:url(#radial-gradient-12)}.cls-37{clip-path:url(#clip-path-21)}.cls-38{fill:url(#radial-gradient-13)}.cls-39{clip-path:url(#clip-path-22)}.cls-40{fill:url(#radial-gradient-14)}.cls-41{clip-path:url(#clip-path-23)}.cls-42{fill:url(#radial-gradient-15)}.cls-43{clip-path:url(#clip-path-24)}.cls-44{fill:url(#radial-gradient-16)}.cls-45{clip-path:url(#clip-path-25)}.cls-46{fill:url(#radial-gradient-17)}.cls-47{clip-path:url(#clip-path-26)}.cls-48{fill:url(#radial-gradient-18)}.cls-49{clip-path:url(#clip-path-27)}.cls-50{fill:url(#radial-gradient-19)}</style><radialGradient id="radial-gradient" cx="33.22" cy="152.69" r="1.28" gradientTransform="matrix(59.46 0 0 -59.46 -1898.79 9154.5)" gradientUnits="userSpaceOnUse"><stop offset="0" stop-color="#fff"/><stop offset=".02" stop-color="#fff"/><stop offset=".47" stop-color="#fff"/><stop offset=".84" stop-color="gray"/><stop offset="1"/></radialGradient><clipPath id="clip-path" transform="translate(36.95 36.95)"><path class="cls-2" d="M.16.16h152.25v152.25H.16z"/></clipPath><clipPath id="clip-path-4" transform="translate(36.95 36.95)"><path class="cls-2" d="M152.41 76.29A76.12 76.12 0 1 1 76.29.16a76.12 76.12 0 0 1 76.12 76.13"/></clipPath><mask id="mask" x="37.11" y="37.11" width="152.25" height="152.25" maskUnits="userSpaceOnUse"><path class="cls-1" d="M.16.16h152.25v152.25H.16z" transform="translate(36.95 36.95)"/></mask><radialGradient id="radial-gradient-2" cx="33.22" cy="152.69" r="1.28" gradientTransform="matrix(59.46 0 0 -59.46 -1861.84 9191.45)" gradientUnits="userSpaceOnUse"><stop offset="0" stop-color="#e43d99"/><stop offset=".02" stop-color="#e43d99"/><stop offset=".47" stop-color="#e43d99"/><stop offset=".84" stop-color="#e44099"/><stop offset="1" stop-color="#e47e99"/></radialGradient><clipPath id="clip-path-5" transform="translate(36.95 36.95)"><path class="cls-2" d="M15.46 76.28a60.83 60.83 0 1 0 60.83-60.82 60.83 60.83 0 0 0-60.83 60.82"/></clipPath><radialGradient id="radial-gradient-3" cx="33.16" cy="152.36" r="1.28" gradientTransform="matrix(0 100.54 100.54 0 -15236.89 -3308.26)" gradientUnits="userSpaceOnUse"><stop offset="0" stop-color="#e47e99"/><stop offset=".06" stop-color="#e47e99"/><stop offset=".53" stop-color="#e43d99"/><stop offset=".99" stop-color="#b30058"/><stop offset="1" stop-color="#b30058"/></radialGradient><clipPath id="clip-path-7" transform="translate(36.95 36.95)"><path class="cls-2" d="M15.46 15.46h100.78V129H15.46z"/></clipPath><clipPath id="clip-path-8" transform="translate(36.95 36.95)"><path class="cls-2" d="M25.06 83.15a60.82 60.82 0 0 1 91.17-52.71A60.82 60.82 0 1 0 45.94 129a60.67 60.67 0 0 1-20.88-45.85"/></clipPath><radialGradient id="radial-gradient-4" cx="33.11" cy="152.34" r="1.28" gradientTransform="matrix(0 90.05 90.05 0 -13646.09 -2955.59)" xlink:href="#radial-gradient-3"/><clipPath id="clip-path-9" transform="translate(36.95 36.95)"><path class="cls-2" d="M15.27 15.94h76.65v121.48H15.27z"/></clipPath><clipPath id="clip-path-10" transform="translate(36.95 36.95)"><path class="cls-2" d="M44.73 117.69A60.82 60.82 0 0 1 71.92 15.94a60.82 60.82 0 1 0 20 119.4 60.67 60.67 0 0 1-47.19-17.66"/></clipPath><radialGradient id="radial-gradient-5" cx="33.14" cy="152.54" r="1.28" gradientTransform="matrix(0 90.05 90.05 0 -13677.78 -2936.29)" xlink:href="#radial-gradient-3"/><clipPath id="clip-path-11" transform="translate(36.95 36.95)"><path class="cls-2" d="M17.05 38.88h120.06v98.23H17.05z"/></clipPath><clipPath id="clip-path-12" transform="translate(36.95 36.95)"><path class="cls-2" d="M124.24 38.88A60.82 60.82 0 0 1 17.05 90.1a60.82 60.82 0 1 0 107.19-51.22"/></clipPath><radialGradient id="radial-gradient-6" cx="33.25" cy="152.34" r="1.28" gradientTransform="matrix(0 83.35 83.35 0 -12612.76 -2684.54)" gradientUnits="userSpaceOnUse"><stop offset="0" stop-color="#b30058"/><stop offset=".01" stop-color="#b30058"/><stop offset="1" stop-color="#5c2d7d"/></radialGradient><clipPath id="clip-path-13" transform="translate(36.95 36.95)"><path class="cls-2" d="M15.42 39h120.3v97.32H15.42z"/></clipPath><clipPath id="clip-path-14" transform="translate(36.95 36.95)"><path class="cls-2" d="M135.72 88.16A60.82 60.82 0 0 1 27.57 39a60.82 60.82 0 1 0 108.15 49.16"/></clipPath><radialGradient id="radial-gradient-7" cx="33.41" cy="152.16" r="1.28" gradientTransform="matrix(-83.35 0 0 83.35 2863.93 -12591.2)" xlink:href="#radial-gradient-6"/><clipPath id="clip-path-15" transform="translate(36.95 36.95)"><path class="cls-2" d="M15.46 15.49h121.62v121.34H15.46z"/></clipPath><clipPath id="clip-path-16" transform="translate(36.95 36.95)"><path class="cls-2" d="M35.34 48.31a33.15 33.15 0 0 0 9.83.09 38.85 38.85 0 0 0 9.52-2.53 38.71 38.71 0 0 0 7.6-4.16c1.05-.73 1.93-1.49 2.72-2.15l1.11-.93.88-.86 1.65-1.63s.14-.16.38-.46l1.07-1.32c.47-.57 1-1.26 1.59-2.09s1.31-1.75 1.91-2.79c2.47-3.71 5.17-8.74 7.93-13.78q-1.95-.17-3.92-.21C74.86 19.84 72.3 24 70.05 27c-.66 1-1.35 1.78-1.93 2.53s-1.12 1.39-1.56 1.89l-1 1.17c-.24.27-.37.41-.37.41l-1.42 1.53-.77.8-1 .87c-.68.62-1.43 1.35-2.33 2a36.19 36.19 0 0 1-15.08 6.89 32.17 32.17 0 0 1-8.94.59 20.86 20.86 0 0 1-7.47-2 14 14 0 0 1-2.33-1.47c-.27.4-.53.82-.79 1.23a13.54 13.54 0 0 0 2.21 1.81 21.32 21.32 0 0 0 8 3"/></clipPath><radialGradient id="radial-gradient-8" cx="32.3" cy="153.87" r="1.28" gradientTransform="matrix(18.08 0 0 -18.08 -493.88 2851.7)" xlink:href="#radial-gradient-6"/><clipPath id="clip-path-17" transform="translate(36.95 36.95)"><path class="cls-2" d="M41.46 30.22a7.9 7.9 0 0 0 1.62 2.94 7.25 7.25 0 0 0 3 2 12.1 12.1 0 0 0 6.64.06A17.15 17.15 0 0 0 57.89 33 23.23 23.23 0 0 0 61 30.7c.69-.62 1.06-1 1.06-1a34.29 34.29 0 0 0 3.13-4.09c.84-1.26 1.76-2.78 2.64-4.41s1.78-3.31 2.72-5l.3-.53c-1.46.13-2.91.31-4.34.54-.69 1-1.36 2-2 2.94-1 1.49-2 2.81-2.82 3.9a32.31 32.31 0 0 1-3 3.39s-.29.34-.83.9a19.82 19.82 0 0 1-2.36 2.1 13.63 13.63 0 0 1-3.78 2.06 9.11 9.11 0 0 1-4.61.5 4.65 4.65 0 0 1-3.21-2.7 12.8 12.8 0 0 1-1-3.87q-1 .65-2 1.35a12.45 12.45 0 0 0 .49 3.45"/></clipPath><radialGradient id="radial-gradient-9" cx="31.37" cy="155.21" r="1.28" gradientTransform="matrix(9.93 0 0 -9.93 -218.52 1603.12)" xlink:href="#radial-gradient-6"/><clipPath id="clip-path-18" transform="translate(36.95 36.95)"><path class="cls-2" d="M50 128.43a8.29 8.29 0 0 1 3.47-5.95 24.8 24.8 0 0 1 7.1-3.56c5.31-1.7 10.86-3.35 15.93-4.94s10.18-3 14-6.13a13.83 13.83 0 0 0 4.24-5.4 12.39 12.39 0 0 0 .06-8.89 6 6 0 0 0-.38-.89l-.15-.3a6.37 6.37 0 0 0-.71-1.12 8.27 8.27 0 0 0-3-2.58 8.56 8.56 0 0 0-5.91-.61c-1 .22-2 .55-2.84.85a22.64 22.64 0 0 1-2.71.7c-3.84.8-8.7.47-14.16.41a38.11 38.11 0 0 0-8.62.82 26.5 26.5 0 0 0-8.26 3.68c-5 3.23-9.07 7.16-13.66 9.4a26 26 0 0 1-11 2.59c.39.68.79 1.35 1.2 2a27.28 27.28 0 0 0 10.86-2.23c5.18-2.26 9.59-6.17 14.29-9a23.24 23.24 0 0 1 7.3-3 35.09 35.09 0 0 1 7.77-.47c5.2.21 10.38.76 15 0a26.83 26.83 0 0 0 3.25-.75c1-.29 1.78-.54 2.47-.67a3.94 3.94 0 0 1 2.84.29A3.71 3.71 0 0 1 89.8 94a2.92 2.92 0 0 1 .37.62 3.85 3.85 0 0 1 .32.67 7.39 7.39 0 0 1 .51 2.12 7.57 7.57 0 0 1-.41 3.4 9.62 9.62 0 0 1-2.83 3.71 21.34 21.34 0 0 1-5.39 3.17c-2.13.92-4.55 1.72-7.09 2.59-5.07 1.76-10.4 3.54-15.87 5.52a27.46 27.46 0 0 0-7.86 4.37 12.59 12.59 0 0 0-3 3.6 10.25 10.25 0 0 0-1.21 4.46v1.58q1.26.68 2.56 1.31a20 20 0 0 1 0-2.71"/></clipPath><radialGradient id="radial-gradient-10" cx="32.63" cy="152.81" r="1.28" gradientTransform="matrix(23.23 0 0 -23.23 -661.4 3696.49)" xlink:href="#radial-gradient-6"/><clipPath id="clip-path-19" transform="translate(36.95 36.95)"><path class="cls-2" d="M78.4 129.64l.82-.51.85-.43a25.36 25.36 0 0 1 6.54-2.19 34.28 34.28 0 0 1 4.93-.57c1.21-.05 1.91 0 1.91 0a55 55 0 0 1 7 .1c2.12.14 4.61.42 7.29.81l2 .28q2.18-1.44 4.23-3.06c-1.83-.25-3.68-.67-5.52-1-2.72-.56-5.3-1-7.54-1.28a56.66 56.66 0 0 0-7.57-.49s-.77 0-2.11.15a37.7 37.7 0 0 0-5.54.93 28.75 28.75 0 0 0-7.46 3l-1 .57-.93.66a19.19 19.19 0 0 0-1.83 1.4 34.62 34.62 0 0 0-3.24 3.24 159.11 159.11 0 0 0-4.28 5.23c1.13.17 2.27.31 3.42.42 1.06-1.12 2.15-2.25 3.26-3.37a32.41 32.41 0 0 1 3.12-2.72 16 16 0 0 1 1.64-1.1"/></clipPath><radialGradient id="radial-gradient-11" cx="32.51" cy="152.78" r="1.28" gradientTransform="matrix(13.67 0 0 -13.67 -317 2254.64)" xlink:href="#radial-gradient-6"/><clipPath id="clip-path-20" transform="translate(36.95 36.95)"><path class="cls-2" d="M93.28 29.73A78.4 78.4 0 0 1 88 35.51 76.59 76.59 0 0 1 74.67 46a74.88 74.88 0 0 1-7.55 4.11c-2.56 1.21-5.24 2.3-7.8 3.68a23.2 23.2 0 0 0-6.88 5.27 15.44 15.44 0 0 0-3.53 7.38 10.93 10.93 0 0 0 1.25 7.27 11.62 11.62 0 0 0 4 4.07 15.44 15.44 0 0 0 3.2 1.48l1.17.34s.41.09 1.18.24a21.82 21.82 0 0 0 3.33.3 23.2 23.2 0 0 0 5.1-.47A36.8 36.8 0 0 0 81 74.37a63.3 63.3 0 0 0 6.44-5.1A27.94 27.94 0 0 1 94 64.78a20.63 20.63 0 0 1 8-1.42c2.86-.07 5.87.08 8.91-.23a30.53 30.53 0 0 0 8.61-2.27 45.37 45.37 0 0 0 12.72-8.55c-.25-.58-.51-1.15-.78-1.72l-.34.28a45.76 45.76 0 0 1-12.57 7.56 28.27 28.27 0 0 1-7.89 1.73c-2.75.18-5.65-.08-8.68-.12a23.82 23.82 0 0 0-9.31 1.4A31.11 31.11 0 0 0 85 66.28a60.68 60.68 0 0 1-6.18 4.62 32.64 32.64 0 0 1-11.48 4.38 18.79 18.79 0 0 1-4.15.28 17.13 17.13 0 0 1-2.62-.3l-.89-.2-.87-.23a11.14 11.14 0 0 1-2.25-1A7.15 7.15 0 0 1 54 71.47a6.5 6.5 0 0 1-.85-4.37 11.28 11.28 0 0 1 2.45-5.4 19.41 19.41 0 0 1 5.59-4.5c2.27-1.32 4.86-2.47 7.5-3.83a75.89 75.89 0 0 0 7.75-4.57 76.54 76.54 0 0 0 13.4-11.46A75.59 75.59 0 0 0 95 31.11a32.81 32.81 0 0 0 3.82-6.26 23.07 23.07 0 0 0 1.52-4.42L99 19.85A21.16 21.16 0 0 1 97.23 24a32.73 32.73 0 0 1-3.95 5.69"/></clipPath><radialGradient id="radial-gradient-12" cx="33.02" cy="153.2" r="1.28" gradientTransform="matrix(28.43 0 0 -28.43 -811.42 4442.39)" xlink:href="#radial-gradient-6"/><clipPath id="clip-path-21" transform="translate(36.95 36.95)"><path class="cls-2" d="M54.89 110.9l2.37-1.9c.19-.15.36-.29.6-.5l.39-.37c.15-.16.29-.32.43-.48a8.33 8.33 0 0 0 1.29-2 4.52 4.52 0 0 0 .17-3.51 4.82 4.82 0 0 0-.8-1.24l-.92-.51-.4-.22h-2.17l-.77.16-.92.19c-.16 0-.41.08-.55.12l-.38.13a18.4 18.4 0 0 0-4.1 2c-3.15 1.93-6.41 5.29-9.43 8.44a30.73 30.73 0 0 1-8.15 6.23c.51.55 1 1.1 1.56 1.64a30.71 30.71 0 0 0 8.89-5.35c3.43-3 6.68-5.78 9.38-7.16a14.19 14.19 0 0 1 3.25-1.31l.28-.08c.08 0 0 0 0 0a.08.08 0 0 1 0-.06.1.1 0 0 1 .18.07.28.28 0 0 1 0 .11 2.91 2.91 0 0 1-.57.59l-2.16 2c-1.51 1.4-3.15 2.87-4.82 4.31-4.41 3.86-9.09 7.39-11.65 9.5l1 .89a101.05 101.05 0 0 0 12.66-7.78c1.84-1.3 3.64-2.66 5.3-4"/></clipPath><radialGradient id="radial-gradient-13" cx="31.19" cy="153.3" r="1.28" gradientTransform="matrix(10.1 0 0 -10.1 -232.13 1696.81)" xlink:href="#radial-gradient-6"/><clipPath id="clip-path-22" transform="translate(36.95 36.95)"><path class="cls-2" d="M97 130.7s-1.3.24-3.34.76a18.21 18.21 0 0 0-7.28 3.46 11 11 0 0 0-1.54 1.59 60.38 60.38 0 0 0 20.08-6.51c-4.29.36-8 .74-8 .74"/></clipPath><radialGradient id="radial-gradient-14" cx="31.34" cy="153.13" r="1.28" gradientTransform="matrix(5.84 0 0 -5.84 -51.32 1064.85)" xlink:href="#radial-gradient-6"/><clipPath id="clip-path-23" transform="translate(36.95 36.95)"><path class="cls-2" d="M134.63 78.13a20.37 20.37 0 0 0-5.71 2.73 23.22 23.22 0 0 0-2.71 2.14c-.4.38-.79.75-1.14 1.12l-.26.27a5.81 5.81 0 0 0-.38.46l-.74 1A4 4 0 0 0 123 89a3.58 3.58 0 0 0 .34.87 2.62 2.62 0 0 0 .17.28 3.09 3.09 0 0 0 .93.81 4.39 4.39 0 0 0 1.4.52c.61.09 1.38.12 2.1.18a30.22 30.22 0 0 0 6.35-.52c.37-.08.73-.19 1.09-.29q.39-1.57.69-3.18a15.2 15.2 0 0 1-2.17.18 35.05 35.05 0 0 1-5.61-.49c-.19-.13 0-.19 0-.19a.13.13 0 0 1-.19-.06.18.18 0 0 1 0-.06.07.07 0 0 1 0-.07l.18-.26c.24-.36.52-.72.8-1.09a25.19 25.19 0 0 1 2-2.23 32.33 32.33 0 0 1 4.39-3.65c.69-.48 1.27-.88 1.65-1.19v-.83a8 8 0 0 0-2.45.38"/></clipPath><radialGradient id="radial-gradient-15" cx="32.61" cy="155.11" r="1.28" gradientTransform="matrix(5.5 0 0 -5.5 -12.25 973.98)" xlink:href="#radial-gradient-6"/><clipPath id="clip-path-24" transform="translate(36.95 36.95)"><path class="cls-2" d="M129.13 75.11c-2.54.86-5.21 1.54-7.76 2.39a29.52 29.52 0 0 0-6.89 3.19 17 17 0 0 0-2.55 2 17.61 17.61 0 0 0-1.65 1.93 14.84 14.84 0 0 0-.89 1.38l-.29.51-.23.54a14.12 14.12 0 0 0-.58 1.56 11.74 11.74 0 0 0-.25 6.12 9.4 9.4 0 0 0 1.93 3.8 9.89 9.89 0 0 0 3.73 2.75 14.72 14.72 0 0 0 9.1.51 27.49 27.49 0 0 0 7.79-3.55l3.13-1.94q.49-1.41.91-2.84c-1.68.69-3.46 1.58-5.3 2.48a26.52 26.52 0 0 1-7.19 2.6 11.42 11.42 0 0 1-6.83-.8 5.58 5.58 0 0 1-3.07-4 7.46 7.46 0 0 1 .41-3.76 9.52 9.52 0 0 1 .45-1l.18-.37.19-.36a10.59 10.59 0 0 1 .58-1 11.46 11.46 0 0 1 2.89-3 26.21 26.21 0 0 1 5.78-3.09c2.32-1 5-1.82 7.59-2.94a46.92 46.92 0 0 0 6.76-3.53q0-1.48-.15-2.94a50.5 50.5 0 0 1-7.79 3.38"/></clipPath><radialGradient id="radial-gradient-16" cx="32.94" cy="153.63" r="1.28" gradientTransform="matrix(11.7 0 0 -11.7 -226.07 1921.69)" xlink:href="#radial-gradient-6"/><clipPath id="clip-path-25" transform="translate(36.95 36.95)"><path class="cls-2" d="M19 81.43a3.91 3.91 0 0 0 .34-3 5 5 0 0 0-1.14-2c-.3-.33-.44-.46-.44-.46a19.9 19.9 0 0 0-2.23-1.31v1.56a61.12 61.12 0 0 0 .46 7.34 4.82 4.82 0 0 0 .55-.14 4.4 4.4 0 0 0 .69-.3 4.66 4.66 0 0 0 .72-.48A4.31 4.31 0 0 0 19 81.43"/></clipPath><radialGradient id="radial-gradient-17" cx="22.53" cy="158.36" r="1.28" gradientTransform="matrix(2.69 0 0 -2.69 -6.27 542.65)" xlink:href="#radial-gradient-6"/><clipPath id="clip-path-26" transform="translate(36.95 36.95)"><path class="cls-2" d="M102.69 48.06a7.5 7.5 0 0 1 .38-.85c.27-.48.47-.76.47-.76a17.5 17.5 0 0 1 2.09-3c.74-.92 1.68-1.95 2.72-3.24a39.47 39.47 0 0 0 2.88-4.14 42.62 42.62 0 0 0 3.41-7q-.83-.67-1.67-1.31a63.09 63.09 0 0 1-4.46 6.44 42.52 42.52 0 0 1-3.06 3.45l-3 2.91a26.09 26.09 0 0 0-2.18 2.44 12.86 12.86 0 0 0-.76 1 13 13 0 0 0-.61 1.23 11.31 11.31 0 0 0-.52 1.58 3.29 3.29 0 0 0-.12.66l-.1.78a12.56 12.56 0 0 0 0 1.62l.34 1.62.2.86v.11a.18.18 0 0 0 .1 0h.67a12.3 12.3 0 0 0 1.85 0l1.93-.17c1.57-.2 3.24-.49 4.88-.84 6.63-1.36 12.71-4.24 12.45-4.85s-6.54 1.12-12.94 1.57c-1.6.13-3.19.22-4.69.24a.93.93 0 0 1-.46-.09c-.07 0 0-.18 0-.22a1.53 1.53 0 0 0 .12-.18"/></clipPath><radialGradient id="radial-gradient-18" cx="32.48" cy="155.06" r="1.28" gradientTransform="matrix(9.26 0 0 -9.26 -154.48 1513.16)" xlink:href="#radial-gradient-6"/><clipPath id="clip-path-27" transform="translate(36.95 36.95)"><path class="cls-2" d="M17.43 65.46A12.79 12.79 0 0 0 23 71.79a14.19 14.19 0 0 0 5.82 1.49c1.37.08 2.11 0 2.11 0h.34v.77a13.43 13.43 0 0 1-.54 4.68 17.15 17.15 0 0 1-8 10 21.51 21.51 0 0 1-5.68 2.24c.2.82.43 1.63.66 2.43a23.07 23.07 0 0 0 6.44-1.93A20.31 20.31 0 0 0 34.8 80a17.56 17.56 0 0 0 1.07-6.12v-.62l-.06-.69a12.68 12.68 0 0 0-.27-1.75L35 68.37l-3.82.25h-.47s-.67.06-1.76.05a10.07 10.07 0 0 1-4.06-.76 8.77 8.77 0 0 1-4-4.14 23.44 23.44 0 0 1-2.12-7.36 60.19 60.19 0 0 0-2 7.3 17.75 17.75 0 0 0 .66 1.77"/></clipPath><radialGradient id="radial-gradient-19" cx="31.1" cy="153.89" r="1.28" gradientTransform="matrix(11.49 0 0 -11.49 -294.05 1880.08)" xlink:href="#radial-gradient-6"/></defs><title>planet-pink</title><g class="cls-3"><g class="cls-4" id="Layer_1" data-name="Layer 1"><path class="cls-4 cls-5 cls-4 cls-6 cls-7 cls-8" d="M37.11 37.11h152.25v152.25H37.11z"/><path class="cls-9 cls-10" transform="rotate(-29.74 164.357 25.195)" d="M-6.71-6.71h165.99v165.99H-6.71z"/><g class="cls-4"><path class="cls-11 cls-12 cls-13 cls-14" transform="rotate(-29.74 153.905 21.13)" d="M-6.07-2.06h143.83v148.58H-6.07z"/><path class="cls-11 cls-15 cls-16 cls-17" transform="rotate(-74.74 93.298 72.654)" d="M-20.47 22.1h142.18v112.52H-20.47z"/><path class="cls-18 cls-19 cls-20 cls-21" transform="rotate(-29.62 165.439 36.6)" d="M.62 15.63h152.92v144.73H.62z"/><path class="cls-18 cls-22 cls-23 cls-24" transform="rotate(-69.63 118.385 83.243)" d="M2.57 14.64h141.55v153.38H2.57z"/><g class="cls-25 cls-26"><path class="cls-27 cls-28" d="M62.04 52.44h56.44v33.38H62.04z"/><path class="cls-29 cls-30" d="M77.91 52.66h29.87v20.29H77.91z"/><path class="cls-31 cls-32" d="M60.45 124.5h72.19v43.59H60.45z"/><path class="cls-33 cls-34" d="M103.91 158.1h46.98v15.67h-46.98z"/><path class="cls-35 cls-36" d="M85.4 56.8h83.75v60.32H85.4z"/><path class="cls-37 cls-38" d="M68.52 137.11h29v22.48h-29z"/><path class="cls-39 cls-40" d="M121.75 166.91h20.12v6.55h-20.12z"/><path class="cls-41 cls-42" d="M159.73 114.66h14.3v13.98h-14.3z"/><path class="cls-43 cls-44" d="M144.38 108.67h29.64v30.83h-29.64z"/><path class="cls-45 cls-46" d="M52.4 111.68h4.1v8.89h-4.1z"/><path class="cls-47 cls-48" d="M135.04 64.71h22.79v24.92h-22.79z"/><path class="cls-49 cls-50" d="M53.72 93.34h19.12v36.97H53.72z"/></g></g></g></g></svg>