<svg xmlns="http://www.w3.org/2000/svg" xmlns:xlink="http://www.w3.org/1999/xlink" width="209.03" height="209.03" viewBox="0 0 209.03 209.03"><defs><style>.cls-1{isolation:isolate}.cls-2{fill:url(#radial-gradient)}.cls-3{fill:url(#radial-gradient-2)}.cls-4{fill:url(#radial-gradient-3)}.cls-5{fill:url(#radial-gradient-4)}.cls-6{opacity:.4;fill:url(#radial-gradient-5)}.cls-10,.cls-11,.cls-6,.cls-7{mix-blend-mode:multiply}.cls-10,.cls-11,.cls-7{opacity:.2}.cls-7{fill:url(#radial-gradient-6)}.cls-8,.cls-9{fill:#f0ac39;opacity:.5}.cls-9{mix-blend-mode:screen;fill:url(#radial-gradient-7)}.cls-10{fill:url(#radial-gradient-8)}.cls-12{fill:url(#radial-gradient-9)}.cls-13{fill:url(#radial-gradient-10)}.cls-14{fill:url(#radial-gradient-11)}.cls-15{fill:url(#radial-gradient-12)}</style><radialGradient id="radial-gradient" cx="56.13" cy="16.55" r="243.23" gradientUnits="userSpaceOnUse"><stop offset="0" stop-color="#cae1ee"/><stop offset=".34" stop-color="#52e1ee"/><stop offset=".94" stop-color="#842ba7"/></radialGradient><radialGradient id="radial-gradient-2" cx="65.1" cy="56.45" r="187.02" gradientUnits="userSpaceOnUse"><stop offset=".05" stop-color="#f5a500"/><stop offset="1" stop-color="#ee29ba"/></radialGradient><radialGradient id="radial-gradient-3" cx="65.1" cy="56.45" r="187.02" xlink:href="#radial-gradient-2"/><radialGradient id="radial-gradient-4" cx="65.1" cy="56.45" r="187.02" xlink:href="#radial-gradient-2"/><radialGradient id="radial-gradient-5" cx="63.33" cy="45.1" r="217.02" gradientUnits="userSpaceOnUse"><stop offset=".01" stop-color="#d10059"/><stop offset="1" stop-color="#682980"/></radialGradient><radialGradient id="radial-gradient-6" cx="55.37" cy="52.29" r="215.23" xlink:href="#radial-gradient-5"/><radialGradient id="radial-gradient-7" cx="38.41" cy="16.82" r="216.54" xlink:href="#radial-gradient"/><radialGradient id="radial-gradient-8" cx="59.78" cy="32.3" r="71.63" xlink:href="#radial-gradient-5"/><radialGradient id="radial-gradient-9" cx="166.81" cy="118.4" r="77.8" xlink:href="#radial-gradient-5"/><radialGradient id="radial-gradient-10" cx="166.81" cy="118.4" r="77.8" xlink:href="#radial-gradient-5"/><radialGradient id="radial-gradient-11" cx="166.81" cy="118.4" r="77.8" xlink:href="#radial-gradient-5"/><radialGradient id="radial-gradient-12" cx="166.81" cy="118.4" r="77.8" xlink:href="#radial-gradient-5"/></defs><title>planet-rainbow</title><g class="cls-1"><g id="Режим_изоляции" data-name="Режим изоляции"><circle class="cls-2" cx="104.52" cy="104.52" r="104.52"/><path class="cls-3" d="M51.56 62.74c-.16 3.22.22 6.78 2.55 9C58.05 75.48 64.76 73 68.5 69s6.27-9.18 10.93-12c2.64-1.59 6.46-2 8.5.26 3.37 3.81-1.44 9.38-1.83 14.45-.53 6.88 8 11.52 14.73 10s11.84-6.82 16.8-11.63a191.38 191.38 0 0 1 46.16-33.05c4.4-2.25 9-4.45 12.06-8.36.09-.11.15-.24.23-.36A104.13 104.13 0 0 0 104.52 0a105.29 105.29 0 0 0-15.1 1.1C84 8.54 77.6 15.39 71.61 22.39 61.66 34 52.31 47.45 51.56 62.74z"/><path class="cls-4" d="M107.44 202.4c4.68-3.43 9.12-7.57 11.28-13s1.53-12.23-2.79-16.11c-5.55-5-14.09-3.33-21.54-2.88s-17-2.75-17.16-10.21c-.11-6.79 7.58-10.47 13.62-13.57a60.63 60.63 0 0 0 18-14.12c1.65-1.9 3.27-4.44 2.31-6.77-.62-1.5-2.15-2.39-3.61-3.12a64.4 64.4 0 0 0-48.33-3.47c-9.35 3.09-17.84 8.29-26.86 12.25-8.66 3.8-18.3 6.41-27.53 4.61a104.56 104.56 0 0 0 92.32 72.68 81.35 81.35 0 0 0 10.29-6.29z"/><path class="cls-5" d="M199.63 147.83l-14.81.08c-3.64 0-7.8-.2-10.08-3-2.75-3.42-1.11-8.49 1-12.34 8.12-14.92 21.12-26.36 32.75-38.8a103.84 103.84 0 0 0-7.77-30.13c-10.16 11.06-22.85 20.24-34.45 30-17.6 14.79-34.45 34.56-33.31 57.52.29 5.86 1.93 11.91 6 16.12 5.58 5.74 14.26 6.8 22.23 7.51 6.54.58 13.14 1.11 19.7 1.07a104.65 104.65 0 0 0 18.74-28.03z"/><path class="cls-6" d="M178.79 31a104.51 104.51 0 0 1-169 117.78A104.52 104.52 0 1 0 178.79 31z"/><path class="cls-7" d="M124.93 167.53A104.49 104.49 0 0 1 23.26 38.81a104.51 104.51 0 1 0 182.93 89.92 104.3 104.3 0 0 1-81.26 38.8z"/><path class="cls-8" d="M15.55 122.19A104.51 104.51 0 0 1 190.21 44.7 104.51 104.51 0 1 0 34.38 182a104 104 0 0 1-18.83-59.81z"/><path class="cls-9" d="M135.62 202A104.52 104.52 0 0 1 97.1.29 104.5 104.5 0 1 0 143 201.68c-2.42.17-4.89.32-7.38.32z"/><path class="cls-10" d="M90.23 70.33c-5.2 0-5.19-8.06 0-8.06s5.19 8.06 0 8.06zm3.24 26.29a6.73 6.73 0 0 0 4.61-1.91 6.52 6.52 0 0 0 0-9.23 6.52 6.52 0 0 0-9.23 0 6.52 6.52 0 0 0 0 9.23 6.78 6.78 0 0 0 4.61 1.91zm-24.82 7c4.64 0 4.64-7.21 0-7.21s-4.64 7.21 0 7.21zm6.5-12.31c4 0 4-6.23 0-6.23s-4 6.23 0 6.23zm-34.29 13.1a6.36 6.36 0 0 0 4.36-1.81 6.17 6.17 0 0 0-4.36-10.53 6.37 6.37 0 0 0-4.36 1.81 6.17 6.17 0 0 0 4.36 10.53zm2.66-26.8a.07.07 0 0 0 0-.13.07.07 0 0 0 0 .13zm13.92-.93l-.05.08c-1.37 2 0 4.79 2.19 5.38a3.8 3.8 0 0 0 2.82-.37 3.6 3.6 0 0 0 1.81-3.16v-.11a4 4 0 0 0-.78-2.2 3.46 3.46 0 0 0-1.89-1.3 3.81 3.81 0 0 0-4.1 1.67zM65.1 60a5.67 5.67 0 0 0 3.9-1.64A5.5 5.5 0 0 0 65.1 49a5.67 5.67 0 0 0-3.89 1.61A5.5 5.5 0 0 0 65.1 60zM42 73.91a3.18 3.18 0 1 0-3.18-3.18A3.21 3.21 0 0 0 42 73.91zm38.13 49.23a6.49 6.49 0 0 0 4.45-1.84 6.29 6.29 0 0 0-4.45-10.74 6.49 6.49 0 0 0-4.45 1.84 6.29 6.29 0 0 0 4.45 10.74z"/><path class="cls-11 cls-12" d="M140.91 185.05a1.91 1.91 0 0 0 0-3.82 1.91 1.91 0 0 0 0 3.82z"/><path class="cls-11 cls-13" d="M159.83 156.1c5.13 0 10-4.51 9.81-9.81a10 10 0 0 0-9.81-9.81c-5.13 0-10 4.51-9.81 9.81a10 10 0 0 0 9.81 9.81z"/><path class="cls-11 cls-14" d="M160.83 181c7.54 0 7.55-11.72 0-11.72s-7.55 11.72 0 11.72z"/><path class="cls-11 cls-15" d="M187.73 153.28c7.72 0 7.73-12 0-12s-7.73 12 0 12z"/></g></g></svg>