<svg xmlns="http://www.w3.org/2000/svg" width="27" height="34" viewBox="0 0 27 34"><g><g><g><g><g><path fill="#5f52fa" d="M11.618 21.723H7.312v-6.13a5.065 5.065 0 0 1 4.306 5.002zm0 4.896a5.063 5.063 0 0 1-5.057 5.057 5.063 5.063 0 0 1-5.058-5.057v-3.392h10.115zM1.503 20.595a5.065 5.065 0 0 1 4.306-5.002v6.13H1.503zm5.808-6.518v-.114a1.076 1.076 0 0 1 1.106-1.075l2.29-.097a2.442 2.442 0 0 0 2.421-2.44 2.442 2.442 0 0 0-2.44-2.439H5.574a.937.937 0 0 1-.935-.936.92.92 0 0 1 .91-.921h4.501a3.031 3.031 0 0 0 3.028-3.027A3.03 3.03 0 0 0 10.049 0H4.958a.752.752 0 0 0 0 1.503h5.091c.84 0 1.524.684 1.524 1.525 0 .84-.683 1.524-1.524 1.524H5.58a2.39 2.39 0 0 0-1.719.693 2.412 2.412 0 0 0-.726 1.732 2.442 2.442 0 0 0 2.44 2.439h5.115a.937.937 0 1 1-.032 1.872l-2.29.097a2.58 2.58 0 0 0-2.56 2.58v.113C2.544 14.452 0 17.232 0 20.595v6.024a6.568 6.568 0 0 0 6.56 6.56 6.568 6.568 0 0 0 6.561-6.56v-6.024c0-3.364-2.545-6.144-5.81-6.518z"/></g></g></g><g><g><g><path fill="#5f52fa" d="M23.838 10.31c-.016-.01-.033-.017-.05-.027a3.641 3.641 0 0 0-.119-.064l-.061-.031a3.65 3.65 0 0 0-.415-.173l-.024-.008a3.62 3.62 0 0 0-.216-.066h-.001a3.64 3.64 0 0 0-.455-.092l-.043-.006a3.581 3.581 0 0 0-.18-.018l-.055-.004a3.721 3.721 0 0 0-.444 0l-.052.004c-.06.004-.12.01-.18.018l-.041.005a3.633 3.633 0 0 0-.885.236l-.017.007a3.664 3.664 0 0 0-.203.09l-.043.023a3.54 3.54 0 0 0-.135.071l-.04.02c-.691-.587-1.118-1.471-1.163-2.446-.05-1.077.58-2.552 1.733-4.046a11.998 11.998 0 0 1 1.573-1.698c-.124 1.606.712 2.427 1.407 3.11.64.628 1.191 1.17 1.247 2.355.05 1.083-.378 2.094-1.138 2.74zm-.826 5.078l-.01.005a2.215 2.215 0 0 1-.196.091l-.039.016-.06.022-.032.011a2.192 2.192 0 0 1-.07.022l-.026.008-.076.02-.022.005a2.106 2.106 0 0 1-.099.02h-.772-.002a2.061 2.061 0 0 1-.108-.023l-.043-.01a2.056 2.056 0 0 1-.063-.018l-.053-.016-.04-.014a2.18 2.18 0 0 1-1.467-2.047 2.16 2.16 0 0 1 1.212-1.942l.015-.008c.03-.015.061-.029.092-.042l.016-.006a2.138 2.138 0 0 1 .625-.155l.04-.003a2.217 2.217 0 0 1 .328 0l.039.003a2.177 2.177 0 0 1 .619.153l.023.01a2.16 2.16 0 0 1 .485.288 2.16 2.16 0 0 1 .831 1.702 2.18 2.18 0 0 1-1.147 1.908zm.596 14.238a1.74 1.74 0 0 1-1.739 1.739 1.74 1.74 0 0 1-1.739-1.74V16.64c.39.23.83.39 1.303.462a.75.75 0 0 0 .115.01h.896a.749.749 0 0 0 .115-.01c.05-.007.099-.016.148-.026l.093-.02.04-.009a3.68 3.68 0 0 0 .768-.271zM26.478 7.5c-.084-1.774-.977-2.652-1.695-3.357-.777-.763-1.246-1.224-.803-2.734.2-.683-.076-1.042-.258-1.195-.227-.19-.633-.351-1.274-.033-.832.411-2.095 1.622-3.07 2.943-.896 1.213-1.947 3.03-1.864 4.796.062 1.32.622 2.53 1.535 3.382a3.646 3.646 0 0 0-.719 2.178c0 .517.105 1.01.297 1.457v14.689a3.246 3.246 0 0 0 3.242 3.242 3.246 3.246 0 0 0 3.242-3.242V15.422c.35-.564.551-1.23.551-1.942 0-.806-.261-1.55-.703-2.156 1.02-.946 1.588-2.342 1.518-3.824z"/></g></g></g></g></g></svg>