<svg xmlns="http://www.w3.org/2000/svg" width="33" height="30" viewBox="0 0 33 30"><g><g><g><g><g><path fill="#5f52fa" d="M9.834 5.956a.89.89 0 0 1 0 1.778.89.89 0 0 1 0-1.778zm-3.738 5.35a.636.636 0 1 1-.001 1.271.636.636 0 0 1 .001-1.271zm.594 5.556a1.017 1.017 0 0 1 0 2.032 1.017 1.017 0 0 1 0-2.032zm4.06 5.853a.636.636 0 1 1-.002 1.272.636.636 0 0 1 .001-1.272zm3.879-13.502a.635.635 0 0 0-.635.635v15.548a2.801 2.801 0 1 1-5.36 1.133l-.027-.063a4.6 4.6 0 0 0 1.715-1.26 1.904 1.904 0 1 0 .427-3.76c-1.05 0-1.905.854-1.905 1.904 0 .437.148.839.396 1.16a3.327 3.327 0 0 1-2.423 1.05 3.332 3.332 0 0 1-3.328-3.329c0-.703.214-1.368.62-1.933a3.391 3.391 0 0 0 1.244-.567c.376.272.838.433 1.337.433a2.289 2.289 0 0 0 2.286-2.286 2.289 2.289 0 0 0-2.286-2.286 2.289 2.289 0 0 0-2.12 3.14 2.098 2.098 0 0 1-3.3-1.716v-6.35c0-1.156.94-2.096 2.095-2.096.984 0 1.812.682 2.036 1.598a1.908 1.908 0 0 0-1.21 1.773c0 1.05.855 1.905 1.905 1.905s1.905-.855 1.905-1.905c0-.844-.552-1.56-1.313-1.81A3.375 3.375 0 0 0 4.79 7.618 2.013 2.013 0 0 1 7.178 4.52c.048.584.264 1.134.624 1.594a2.161 2.161 0 0 0 2.031 2.89c1.191 0 2.16-.969 2.16-2.16a2.161 2.161 0 0 0-3.367-1.788 1.712 1.712 0 0 1-.189-.783v-.225a2.781 2.781 0 0 1 2.779-2.778 2.781 2.781 0 0 1 2.778 2.778.635.635 0 0 0 1.27 0A4.053 4.053 0 0 0 11.216 0 4.055 4.055 0 0 0 7.258 3.2a3.284 3.284 0 0 0-4.045 4.105A3.37 3.37 0 0 0 0 10.666v6.351a3.37 3.37 0 0 0 2.644 3.287 4.612 4.612 0 0 0-.426 1.927 4.603 4.603 0 0 0 5.146 4.565l.109.246a4.072 4.072 0 0 0 3.721 2.423 4.074 4.074 0 0 0 4.07-4.07V9.849a.635.635 0 0 0-.635-.635z"/></g></g></g><g><g><g><path fill="#5f52fa" d="M15.077 6.5a.636.636 0 1 0-.899.898.636.636 0 0 0 .9-.899z"/></g></g></g><g><g><g><path fill="#5f52fa" d="M18.332 18.89a.638.638 0 0 0-.898 0 .64.64 0 0 0-.186.449c0 .167.068.33.186.449a.638.638 0 0 0 1.084-.449.637.637 0 0 0-.186-.45z"/></g></g></g><g><g><g><path fill="#5f52fa" d="M21.763 23.985a.636.636 0 1 1 0-1.271.636.636 0 0 1 0 1.271zm4.06-5.09a1.017 1.017 0 0 1 0-2.033 1.017 1.017 0 0 1 0 2.032zm.593-6.32a.636.636 0 1 1 .001-1.27.636.636 0 0 1-.001 1.27zm-3.738-4.841a.89.89 0 0 1 0-1.778.89.89 0 0 1 0 1.778zm6.62-.43A3.284 3.284 0 0 0 25.254 3.2 4.054 4.054 0 0 0 21.297 0a4.053 4.053 0 0 0-4.048 4.048V17.05a.635.635 0 0 0 1.27 0V4.048a2.781 2.781 0 0 1 2.778-2.778 2.781 2.781 0 0 1 2.778 2.778v.225c0 .276-.065.543-.188.783a2.161 2.161 0 0 0-3.367 1.789c0 1.19.968 2.159 2.159 2.159a2.161 2.161 0 0 0 2.031-2.89c.361-.46.577-1.01.624-1.595a2.013 2.013 0 0 1 2.388 3.098 3.375 3.375 0 0 0-1.897 2.514 1.908 1.908 0 0 0-1.313 1.81c0 1.05.854 1.905 1.905 1.905 1.05 0 1.905-.855 1.905-1.905 0-.805-.503-1.495-1.21-1.773a2.099 2.099 0 0 1 2.035-1.598c1.156 0 2.096.94 2.096 2.096v6.35a2.098 2.098 0 0 1-3.3 1.717 2.288 2.288 0 0 0-2.12-3.14 2.289 2.289 0 0 0-2.286 2.285 2.289 2.289 0 0 0 2.286 2.286c.499 0 .96-.16 1.337-.433.372.271.796.464 1.244.567.406.565.62 1.23.62 1.933a3.327 3.327 0 1 1-5.751 2.28c.248-.322.396-.724.396-1.16 0-1.051-.855-1.906-1.905-1.906s-1.905.855-1.905 1.905a1.907 1.907 0 0 0 2.332 1.856 4.6 4.6 0 0 0 1.715 1.26l-.028.062a2.801 2.801 0 0 1-2.56 1.667 2.803 2.803 0 0 1-2.799-2.8v-3.741a.635.635 0 0 0-1.27 0v3.742a4.074 4.074 0 0 0 4.07 4.069c1.609 0 3.07-.951 3.72-2.423l.11-.246a4.603 4.603 0 0 0 5.146-4.565c0-.667-.149-1.326-.426-1.927a3.37 3.37 0 0 0 2.644-3.287v-6.351a3.37 3.37 0 0 0-3.213-3.362z"/></g></g></g></g></g></svg>