<svg xmlns="http://www.w3.org/2000/svg" width="34" height="24" viewBox="0 0 34 24"><g><g><path fill="#5f52fa" d="M31.903 20.752c0 .647-.526 1.173-1.173 1.173H3.001a1.174 1.174 0 0 1-1.173-1.173v-1.588h9.076c.22.61.797 1.048 1.482 1.048h8.959c.685 0 1.262-.438 1.482-1.048h9.076zM4.272 2.507c0-.698.567-1.265 1.264-1.265h22.66c.697 0 1.264.567 1.264 1.265v15.392H4.272zm26.452 15.392V2.507a2.532 2.532 0 0 0-2.529-2.53H5.536a2.532 2.532 0 0 0-2.529 2.53v15.392H.564v2.853A2.44 2.44 0 0 0 3 23.189h27.73a2.44 2.44 0 0 0 2.437-2.437v-2.853h-2.444z"/></g></g></svg>