<svg xmlns="http://www.w3.org/2000/svg" width="31" height="31" viewBox="0 0 31 31"><g><g><g><g><path fill="#5f52fa" d="M10.55 29.382c.437-1.356 2.666-2.425 5.255-2.425 2.59 0 4.819 1.069 5.256 2.425zM10.47 19.06zm1.088.336h2.791c.342-.002.677-.095.97-.27v6.876c-2.066.093-3.822.771-4.849 1.776V19.06c.321.217.7.334 1.088.336zm-4.281-4.849h2.508l1.371 1.371c.364.363.857.567 1.371.569h1.822a.97.97 0 1 1 0 1.94H11.56a.976.976 0 0 1-.686-.285l-.544-.544zm2.224 6.704h-2.91v-6.018l2.91 2.909zm0 6.873a1.26 1.26 0 0 1-1.258 1.258H7.85a1.26 1.26 0 0 1-1.259-1.258V22.22h2.91v5.903zM4.17 9.808a3.88 3.88 0 0 1 3.392-3.96v2.88c.001.804.652 1.454 1.455 1.455h2.88a3.88 3.88 0 0 1-3.96 3.393A3.925 3.925 0 0 1 4.17 9.808zm1.453 11.527H3.875a.678.678 0 0 1-.677-.677v-5.434c0-.374.304-.677.677-.677h1.748zM8.532 5.85a3.887 3.887 0 0 1 3.364 3.364h-2.88a.485.485 0 0 1-.484-.484v-2.88zm14.546-2.688v3.432h-2.91a.457.457 0 0 0-.088.018l-3.79.019V3.198zm-2.424 5.773V7.562h1.6zm3.225-1.489c.005-.004.008-.01.014-.016a.74.74 0 0 0 .1-.138.453.453 0 0 0 .049-.184c0-.01.006-.02.006-.03V5.585h2.91v3.917h-5.476zm-1.823 21.937c-.358-1.84-2.73-3.243-5.766-3.38V7.562h3.394v1.94c0 .535.435.969.97.97h6.303a.97.97 0 0 0 .97-.97V5.585a.97.97 0 0 0-.97-.97h-2.909V3.162a.953.953 0 0 0-.97-.932H16.29v-.485a.485.485 0 1 0-.97 0v14.043a1.917 1.917 0 0 0-.97-.27h-1.822a.976.976 0 0 1-.685-.284l-1.351-1.351a4.849 4.849 0 1 0-5.92-7.564A4.813 4.813 0 0 0 3.2 9.835a4.872 4.872 0 0 0 1.98 3.742H3.874a1.649 1.649 0 0 0-1.646 1.647v5.434c0 .91.737 1.646 1.646 1.647h1.748v5.819c0 .449.136.888.392 1.258H1.744a.485.485 0 1 0 0 .97h28.122a.485.485 0 0 0 0-.97z"/><path fill="none" stroke="#5f52fa" stroke-miterlimit="50" stroke-width=".4" d="M10.55 29.382c.437-1.356 2.666-2.425 5.255-2.425 2.59 0 4.819 1.069 5.256 2.425zM10.47 19.06v0s0 0 0 0zm1.088.336h2.791c.342-.002.677-.095.97-.27v6.876c-2.066.093-3.822.771-4.849 1.776V19.06c.321.217.7.334 1.088.336zm-4.281-4.849h2.508l1.371 1.371c.364.363.857.567 1.371.569h1.822a.97.97 0 1 1 0 1.94H11.56a.976.976 0 0 1-.686-.285l-.544-.544zm2.224 6.704h-2.91v-6.018l2.91 2.909zm0 6.873a1.26 1.26 0 0 1-1.258 1.258H7.85a1.26 1.26 0 0 1-1.259-1.258V22.22h2.91v5.903zM4.17 9.808a3.88 3.88 0 0 1 3.392-3.96v2.88c.001.804.652 1.454 1.455 1.455h2.88a3.88 3.88 0 0 1-3.96 3.393A3.925 3.925 0 0 1 4.17 9.808zm1.453 11.527H3.875a.678.678 0 0 1-.677-.677v-5.434c0-.374.304-.677.677-.677h1.748zM8.532 5.85a3.887 3.887 0 0 1 3.364 3.364h-2.88a.485.485 0 0 1-.484-.484v-2.88zm14.546-2.688v3.432h-2.91a.457.457 0 0 0-.088.018l-3.79.019V3.198zm-2.424 5.773V7.562h1.6zm3.225-1.489c.005-.004.008-.01.014-.016a.74.74 0 0 0 .1-.138.453.453 0 0 0 .049-.184c0-.01.006-.02.006-.03V5.585h2.91v3.917h-5.476zm-1.823 21.937c-.358-1.84-2.73-3.243-5.766-3.38V7.562h3.394v1.94c0 .535.435.969.97.97h6.303a.97.97 0 0 0 .97-.97V5.585a.97.97 0 0 0-.97-.97h-2.909V3.162a.953.953 0 0 0-.97-.932H16.29v-.485a.485.485 0 1 0-.97 0v14.043a1.917 1.917 0 0 0-.97-.27h-1.822a.976.976 0 0 1-.685-.284l-1.351-1.351a4.849 4.849 0 1 0-5.92-7.564A4.813 4.813 0 0 0 3.2 9.835a4.872 4.872 0 0 0 1.98 3.742H3.874a1.649 1.649 0 0 0-1.646 1.647v5.434c0 .91.737 1.646 1.646 1.647h1.748v5.819c0 .449.136.888.392 1.258H1.744a.485.485 0 1 0 0 .97h28.122a.485.485 0 0 0 0-.97z"/></g></g></g></g></svg>