<svg xmlns="http://www.w3.org/2000/svg" width="30" height="30" viewBox="0 0 30 30"><g><g><g><path fill="#5f52fa" d="M26.712 27.486H3.708a.776.776 0 0 1-.774-.774V7.782h24.552v18.93a.776.776 0 0 1-.774.774zM3.708 2.934h23.004c.427 0 .774.347.774.774v2.445H2.934V3.708c0-.427.347-.774.774-.774zm23.004-1.63H3.708a2.407 2.407 0 0 0-2.404 2.404v23.004a2.407 2.407 0 0 0 2.404 2.404h23.004a2.407 2.407 0 0 0 2.404-2.404V3.708a2.407 2.407 0 0 0-2.404-2.404z"/><path fill="none" stroke="#e5ebff" stroke-miterlimit="50" stroke-width=".4" d="M26.712 27.486H3.708a.776.776 0 0 1-.774-.774V7.782h24.552v18.93a.776.776 0 0 1-.774.774zM3.708 2.934h23.004c.427 0 .774.347.774.774v2.445H2.934V3.708c0-.427.347-.774.774-.774zm23.004-1.63H3.708a2.407 2.407 0 0 0-2.404 2.404v23.004a2.407 2.407 0 0 0 2.404 2.404h23.004a2.407 2.407 0 0 0 2.404-2.404V3.708a2.407 2.407 0 0 0-2.404-2.404z"/></g><g><path fill="#5f52fa" d="M4.84 5.351h1.114a.815.815 0 0 0 0-1.63H4.841a.815.815 0 0 0 0 1.63z"/><path fill="none" stroke="#e5ebff" stroke-miterlimit="50" stroke-width=".4" d="M4.84 5.351h1.114a.815.815 0 0 0 0-1.63H4.841a.815.815 0 0 0 0 1.63z"/></g><g><path fill="#5f52fa" d="M8.317 5.351h1.114a.815.815 0 0 0 0-1.63H8.317a.815.815 0 0 0 0 1.63z"/><path fill="none" stroke="#e5ebff" stroke-miterlimit="50" stroke-width=".4" d="M8.317 5.351h1.114a.815.815 0 0 0 0-1.63H8.317a.815.815 0 0 0 0 1.63z"/></g><g><path fill="#5f52fa" d="M11.794 5.351h1.113a.815.815 0 0 0 0-1.63h-1.113a.815.815 0 0 0 0 1.63z"/><path fill="none" stroke="#e5ebff" stroke-miterlimit="50" stroke-width=".4" d="M11.794 5.351h1.113a.815.815 0 0 0 0-1.63h-1.113a.815.815 0 0 0 0 1.63z"/></g><g><path fill="#5f52fa" d="M5.93 10.79h18.573v4.346H5.929zm-.816 5.976h20.204c.45 0 .815-.365.815-.815V9.976a.815.815 0 0 0-.815-.815H5.114a.815.815 0 0 0-.814.815v5.975c0 .45.364.815.814.815z"/><path fill="none" stroke="#e5ebff" stroke-miterlimit="50" stroke-width=".4" d="M5.93 10.79h18.573v4.346H5.929zm-.816 5.976h20.204c.45 0 .815-.365.815-.815V9.976a.815.815 0 0 0-.815-.815H5.114a.815.815 0 0 0-.814.815v5.975c0 .45.364.815.814.815z"/></g><g><path fill="#5f52fa" d="M23.726 18.939a.815.815 0 0 0-.815-.815H5.114a.815.815 0 1 0 0 1.63h17.797c.45 0 .815-.365.815-.815z"/><path fill="none" stroke="#e5ebff" stroke-miterlimit="50" stroke-width=".4" d="M23.726 18.939a.815.815 0 0 0-.815-.815H5.114a.815.815 0 1 0 0 1.63h17.797c.45 0 .815-.365.815-.815z"/></g><g><path fill="#5f52fa" d="M5.114 22.578h7.309a.815.815 0 0 0 0-1.63H5.114a.815.815 0 0 0 0 1.63z"/><path fill="none" stroke="#e5ebff" stroke-miterlimit="50" stroke-width=".4" d="M5.114 22.578h7.309a.815.815 0 0 0 0-1.63H5.114a.815.815 0 0 0 0 1.63z"/></g><g><path fill="#5f52fa" d="M20.495 23.772H4.931a.815.815 0 0 0 0 1.63h15.564a.815.815 0 1 0 0-1.63z"/><path fill="none" stroke="#e5ebff" stroke-miterlimit="50" stroke-width=".4" d="M20.495 23.772H4.931a.815.815 0 0 0 0 1.63h15.564a.815.815 0 1 0 0-1.63z"/></g><g><path fill="#5f52fa" d="M25.327 23.772h-1.601a.815.815 0 0 0 0 1.63h1.601a.815.815 0 0 0 0-1.63z"/><path fill="none" stroke="#e5ebff" stroke-miterlimit="50" stroke-width=".4" d="M25.327 23.772h-1.601a.815.815 0 0 0 0 1.63h1.601a.815.815 0 0 0 0-1.63z"/></g></g></g></svg>